<svg width="63" height="103" viewBox="0 0 63 103" fill="none" xmlns="http://www.w3.org/2000/svg">
<path opacity="0.1" d="M50.6165 22.2725C46.4205 8.46614 39.2743 0.222229 31.4999 0.222229C23.7255 0.222229 16.5793 8.46614 12.384 22.2725L2.27334 55.5407C0.595807 61.0597 -0.178218 67.4369 0.0344966 73.9778C0.247211 80.5201 1.42746 86.6122 3.44718 91.6C5.46832 96.5832 8.139 99.9894 11.1704 101.451C14.2017 102.912 17.3092 102.288 20.1563 99.6488L20.347 99.4702C27.511 92.9609 35.6973 93.021 42.8428 99.6488C44.6861 101.358 46.6389 102.222 48.6096 102.222C49.6809 102.222 50.7588 101.966 51.8266 101.452C54.858 99.9924 57.5286 96.5862 59.5505 91.6015C61.5709 86.6182 62.7519 80.5246 62.9653 73.9808C63.1787 67.4369 62.4047 61.0612 60.7272 55.5392L50.6165 22.2725Z" fill="#6BAC50"/>
</svg>
